<svg width="20" height="14" viewBox="0 0 20 14" fill="none" xmlns="http://www.w3.org/2000/svg">
<path d="M12.4291 13.8201C12.2391 13.8201 12.0491 13.7501 11.8991 13.6001C11.6091 13.3101 11.6091 12.8301 11.8991 12.5401L17.4391 7.0001L11.8991 1.46012C11.6091 1.17012 11.6091 0.690117 11.8991 0.400117C12.1891 0.110117 12.6691 0.110117 12.9591 0.400117L19.0291 6.4701C19.3191 6.7601 19.3191 7.2401 19.0291 7.5301L12.9591 13.6001C12.8091 13.7501 12.6191 13.8201 12.4291 13.8201Z" fill="white"/>
<path d="M18.33 7.75H1.5C1.09 7.75 0.75 7.41 0.75 7C0.75 6.59 1.09 6.25 1.5 6.25H18.33C18.74 6.25 19.08 6.59 19.08 7C19.08 7.41 18.74 7.75 18.33 7.75Z" fill="white"/>
</svg>
