<svg width="73" height="44" viewBox="0 0 73 44" fill="none" xmlns="http://www.w3.org/2000/svg">
<mask id="mask0" mask-type="alpha" maskUnits="userSpaceOnUse" x="5" y="21" width="17" height="16">
<path d="M15.3348 27.4615L18.4471 25.8604L21.1004 31.018C20.6513 31.8938 20.0344 32.7059 19.2499 33.4543C18.4654 34.2028 17.6108 34.8149 16.686 35.2906C15.3817 35.9616 14.0677 36.2927 12.7437 36.2841C11.4137 36.2636 10.1991 35.9138 9.10007 35.2346C8.001 34.5555 7.13124 33.5935 6.49081 32.3486C5.85037 31.1037 5.57344 29.8367 5.66001 28.5476C5.74658 27.2586 6.17719 26.0699 6.95184 24.9817C7.72039 23.8816 8.76863 22.99 10.0965 22.3068C11.2585 21.7091 12.4025 21.368 13.5286 21.2835C14.6547 21.199 15.715 21.3657 16.7097 21.7836L15.5119 24.9639C14.1943 24.4721 12.9486 24.5282 11.7748 25.132C10.7078 25.681 10.0159 26.4492 9.69927 27.4368C9.37654 28.4125 9.49269 29.4398 10.0477 30.5188C10.4015 31.2064 10.8669 31.7467 11.4439 32.1396C12.0147 32.5207 12.6462 32.7281 13.3384 32.7619C14.0244 32.7839 14.7112 32.6179 15.3989 32.2642C16.0747 31.9165 16.6389 31.4538 17.0914 30.8762L15.3348 27.4615Z" fill="white"/>
</mask>
<g mask="url(#mask0)">
<circle cx="13.6733" cy="29.2159" r="8.5" transform="rotate(-27.223 13.6733 29.2159)" fill="url(#paint0_linear)"/>
</g>
<path d="M29.9 30.98V36H25.94V30.92L20.6 22H24.78L28.1 27.56L31.42 22H35.26L29.9 30.98ZM48.8486 36L48.8086 28.58L45.2086 34.62H43.4486L39.8686 28.78V36H36.2086V22H39.4686L44.3886 30.08L49.1886 22H52.4486L52.4886 36H48.8486Z" fill="white"/>
<path d="M28.82 19.18C28.18 19.18 27.64 18.9667 27.2 18.54C26.76 18.1133 26.54 17.5733 26.54 16.92C26.54 16.2533 26.7533 15.7133 27.18 15.3C27.62 14.8867 28.1667 14.68 28.82 14.68C29.4867 14.68 30.0333 14.8867 30.46 15.3C30.8867 15.7133 31.1 16.2533 31.1 16.92C31.1 17.5733 30.88 18.1133 30.44 18.54C30.0133 18.9667 29.4733 19.18 28.82 19.18Z" fill="white"/>
<path d="M67.2954 34.6683L66.5034 37.6241L55.6464 34.7149L59.2699 21.192L69.8757 24.0338L69.0838 26.9895L62.2643 25.1623L61.6535 27.4419L67.6616 29.0517L66.8955 31.9109L60.8874 30.301L60.2248 32.7738L67.2954 34.6683Z" fill="white"/>
<path d="M67.2954 34.6683L66.5034 37.6241L55.6464 34.7149L59.2699 21.192L69.8757 24.0338L69.0838 26.9895L62.2643 25.1623L61.6535 27.4419L67.6616 29.0517L66.8955 31.9109L60.8874 30.301L60.2248 32.7738L67.2954 34.6683Z" fill="url(#paint1_linear)"/>
<defs>
<linearGradient id="paint0_linear" x1="13.6733" y1="20.7159" x2="13.6733" y2="37.7159" gradientUnits="userSpaceOnUse">
<stop stop-color="#988FFF"/>
<stop offset="1" stop-color="#6155ED"/>
</linearGradient>
<linearGradient id="paint1_linear" x1="65.9732" y1="17.8117" x2="59.7615" y2="40.994" gradientUnits="userSpaceOnUse">
<stop stop-color="#988FFF"/>
<stop offset="1" stop-color="#6155ED"/>
</linearGradient>
</defs>
</svg>
