<svg width="14" height="14" viewBox="0 0 14 14" fill="none" xmlns="http://www.w3.org/2000/svg">
<path d="M8.14119 1.28959L9.31619 3.6396C9.47453 3.9646 9.89953 4.27293 10.2579 4.3396L12.3829 4.6896C13.7412 4.9146 14.0579 5.89793 13.0829 6.88127L11.4245 8.5396C11.1495 8.8146 10.9912 9.35627 11.0829 9.74794L11.5579 11.7979C11.9329 13.4146 11.0662 14.0479 9.6412 13.1979L7.64953 12.0146C7.29119 11.7979 6.69119 11.7979 6.33286 12.0146L4.34119 13.1979C2.91619 14.0396 2.04954 13.4146 2.42454 11.7979L2.89954 9.74794C2.99121 9.3646 2.83288 8.82294 2.55788 8.5396L0.89955 6.88127C-0.0754512 5.90627 0.241216 4.92293 1.59955 4.6896L3.72452 4.3396C4.08285 4.28127 4.50785 3.9646 4.66619 3.6396L5.84119 1.28959C6.46619 0.0145931 7.49952 0.0145931 8.14119 1.28959Z" fill="#FBE94D"/>
</svg>
